HIERARCHY
ROOT Hips
{
	OFFSET 0.00000 0.00000 0.00000
	CHANNELS 6 Xposition Yposition Zposition Zrotation Yrotation Xrotation 
	JOINT LHipJoint
	{
		OFFSET 0 0 0
		CHANNELS 3 Zrotation Yrotation Xrotation
		JOINT LeftUpLeg
		{
			OFFSET 1.70593 -1.62653 0.87602
			CHANNELS 3 Zrotation Yrotation Xrotation
			JOINT LeftLeg
			{
				OFFSET 2.32330 -6.38322 0.00000
				CHANNELS 3 Zrotation Yrotation Xrotation
				JOINT LeftFoot
				{
					OFFSET 2.45016 -6.73177 0.00000
					CHANNELS 3 Zrotation Yrotation Xrotation
					JOINT LeftToeBase
					{
						OFFSET 0.13029 -0.35798 1.96980
						CHANNELS 3 Zrotation Yrotation Xrotation
						End Site
						{
							OFFSET 0.00000 -0.00000 1.01270
						}
					}
				}
			}
		}
	}
	JOINT RHipJoint
	{
		OFFSET 0 0 0
		CHANNELS 3 Zrotation Yrotation Xrotation
		JOINT RightUpLeg
		{
			OFFSET -1.80599 -1.62652 0.87602
			CHANNELS 3 Zrotation Yrotation Xrotation
			JOINT RightLeg
			{
				OFFSET -2.45375 -6.74162 0.00000
				CHANNELS 3 Zrotation Yrotation Xrotation
				JOINT RightFoot
				{
					OFFSET -2.45828 -6.75406 0.00000
					CHANNELS 3 Zrotation Yrotation Xrotation
					JOINT RightToeBase
					{
						OFFSET -0.13801 -0.37917 1.88456
						CHANNELS 3 Zrotation Yrotation Xrotation
						End Site
						{
							OFFSET -0.00000 -0.00000 0.97281
						}
					}
				}
			}
		}
	}
	JOINT LowerBack
	{
		OFFSET 0 0 0
		CHANNELS 3 Zrotation Yrotation Xrotation
		JOINT Spine
		{
			OFFSET 0.01003 2.00576 -0.14267
			CHANNELS 3 Zrotation Yrotation Xrotation
			JOINT Spine1
			{
				OFFSET 0.00908 2.01191 0.01660
				CHANNELS 3 Zrotation Yrotation Xrotation
				JOINT Neck
				{
					OFFSET 0 0 0
					CHANNELS 3 Zrotation Yrotation Xrotation
					JOINT Neck1
					{
						OFFSET -0.05849 1.60301 0.18934
						CHANNELS 3 Zrotation Yrotation Xrotation
						JOINT Head
						{
							OFFSET 0.01775 1.59435 -0.07960
							CHANNELS 3 Zrotation Yrotation Xrotation
							End Site
							{
								OFFSET 0.01210 1.70732 -0.05248
							}
						}
					}
				}
				JOINT LeftShoulder
				{
					OFFSET 0 0 0
					CHANNELS 3 Zrotation Yrotation Xrotation
					JOINT LeftArm
					{
						OFFSET 3.15315 1.26460 0.30667
						CHANNELS 3 Zrotation Yrotation Xrotation
						JOINT LeftForeArm
						{
							OFFSET 4.97694 -0.00000 -0.00000
							CHANNELS 3 Zrotation Yrotation Xrotation
							JOINT LeftHand
							{
								OFFSET 3.14391 -0.00000 -0.00000
								CHANNELS 3 Zrotation Yrotation Xrotation
								JOINT LeftFingerBase
								{
									OFFSET 0 0 0
									CHANNELS 3 Zrotation Yrotation Xrotation
									JOINT LeftHandIndex1
									{
										OFFSET 0.59358 -0.00000 -0.00000
										CHANNELS 3 Zrotation Yrotation Xrotation
										End Site
										{
											OFFSET 0.47856 -0.00000 -0.00000
										}
									}
								}
								JOINT LThumb
								{
									OFFSET 0 0 0
									CHANNELS 3 Zrotation Yrotation Xrotation
									End Site
									{
										OFFSET 0.48587 -0.00000 0.48587
									}
								}
							}
						}
					}
				}
				JOINT RightShoulder
				{
					OFFSET 0 0 0
					CHANNELS 3 Zrotation Yrotation Xrotation
					JOINT RightArm
					{
						OFFSET -3.25568 1.35581 0.18982
						CHANNELS 3 Zrotation Yrotation Xrotation
						JOINT RightForeArm
						{
							OFFSET -4.90473 -0.00000 0.00000
							CHANNELS 3 Zrotation Yrotation Xrotation
							JOINT RightHand
							{
								OFFSET -3.21621 0.00006 -0.00004
								CHANNELS 3 Zrotation Yrotation Xrotation
								JOINT RightFingerBase
								{
									OFFSET 0 0 0
									CHANNELS 3 Zrotation Yrotation Xrotation
									JOINT RightHandIndex1
									{
										OFFSET -0.62353 -0.00000 -0.00000
										CHANNELS 3 Zrotation Yrotation Xrotation
										End Site
										{
											OFFSET -0.50270 -0.00000 -0.00000
										}
									}
								}
								JOINT RThumb
								{
									OFFSET 0 0 0
									CHANNELS 3 Zrotation Yrotation Xrotation
									End Site
									{
										OFFSET -0.51038 -0.00000 0.51038
									}
								}
							}
						}
					}
				}
			}
		}
	}
}
MOTION
Frames: 7
Frame Time: .0083333
7.3451 15.2054 -40.0638 0 0 0 0 0 0 -21 0 0 0 0 0 0 0 0 0 0 0 0 0 0 21 0 0 0 0 0 0 0 0 0 0 0 0 0 0 0 0 0 0 0 0 0 0 -16 0 0 21 0 0 11 0 0 0 -8 0 0 0 0 0 0 0 0 0 0 0 0 0 0 0 0 0 0 0 0 8 0 0 0 0 0 0 0 0 0 0 0 0 0 0 0 0 0
7.3451 15.2054 -40.0638 3.5757 -0.2365 5.3226 0.0000 0.0000 0.0000 -28.9196 0.0359 -3.6274 1.2219 7.0112 19.7486 0.8214 -13.6481 -17.5600 0.3985 -4.0530 -11.2257 0.0000 0.0000 0.0000 15.1163 14.7234 -38.9165 -5.4371 -13.8597 42.6783 -0.5891 6.9435 -13.7896 -0.2016 2.8912 -7.9761 -4.2774 0.4152 2.0094 0.5222 0.4101 -2.5163 2.9170 0.3312 -3.7607 -3.0278 -1.0331 -7.2698 2.8648 -1.4350 14.4187 1.2974 -0.6602 5.5846 0.0000 0.0000 0.0000 -86.4897 -7.1106 38.7392 17.2160 -27.1417 -4.1854 -0.0000 0.0000 -11.0641 29.7633 -16.6647 -9.3131 -7.1250 0.0000 -0.0000 1.2738 10.9576 -1.0087 0.0000 0.0000 0.0000 90.6697 -18.6898 -17.4895 -8.0701 13.6664 -0.9686 0.0000 0.0000 31.8871 -15.8858 -32.8338 8.7719 7.1250 -0.0000 -0.0000 20.0124 -62.7406 -8.8083
7.3521 15.1704 -39.8307 3.6984 0.1314 5.5880 0.0000 0.0000 0.0000 -29.0209 -0.0847 -1.7587 0.9660 6.2577 17.5339 0.2564 -15.5834 -13.5018 0.1956 2.8484 7.8569 0.0000 0.0000 0.0000 14.8795 14.7062 -39.7021 -4.7345 -13.0784 39.6626 -0.5415 6.9085 -13.2482 -0.1906 2.8114 -7.7542 -4.4089 0.3186 1.8442 0.4472 0.2783 -2.6684 2.9204 0.2720 -3.8151 -2.7273 -1.1299 -6.6014 2.7239 -1.5891 13.8013 1.1944 -0.7349 5.2795 -0.0000 -0.0000 0.0000 -85.9437 -7.4243 39.7446 18.4413 -28.7185 -4.7594 -0.0000 0.0000 -12.3566 29.7802 -15.6903 -8.7971 -7.1250 0.0000 -0.0000 1.3970 12.0498 -1.0749 -0.0000 -0.0000 0.0000 91.0180 -19.1083 -22.1640 -7.6939 13.0555 -0.8817 0.0000 0.0000 36.4223 -27.5473 -25.4693 12.6427 7.1250 -0.0000 -0.0000 2.4452 -58.2088 -0.7905
7.3537 15.1419 -39.6032 3.8198 0.5833 5.8638 0.0000 0.0000 0.0000 -29.0217 0.9673 -0.3206 0.7546 5.5482 15.4791 0.1093 -16.1225 -12.4231 0.2629 3.2986 9.1112 0.0000 0.0000 0.0000 14.6219 14.7242 -40.3891 -4.0872 -12.2756 36.7140 -0.4663 6.8996 -12.3617 -0.0674 1.6744 -4.6067 -4.6000 0.2127 1.6961 0.4037 0.1335 -2.7813 2.9903 0.2073 -3.8380 -2.5413 -1.0832 -6.5425 2.6824 -1.5410 13.6744 1.1541 -0.7052 5.2270 -0.0000 -0.0000 0.0000 -85.6029 -8.0430 40.3732 19.3361 -29.8341 -5.1970 -0.0000 0.0000 -13.3894 29.8161 -15.0609 -8.4698 -7.1250 0.0000 -0.0000 1.4908 12.7532 -1.1253 -0.0000 -0.0000 0.0000 91.3476 -19.3804 -27.3406 -7.5588 12.8352 -0.8514 0.0000 0.0000 42.7437 -24.3501 -27.2475 11.7062 7.1250 -0.0000 -0.0000 6.7836 -59.3296 -2.3812
7.3526 15.1285 -39.3776 4.1358 1.0798 6.1220 0.0000 0.0000 0.0000 -29.1221 2.3071 1.1676 0.5380 4.6999 13.0545 -0.0938 -16.7048 -10.7812 0.3414 3.7544 10.3868 0.0000 0.0000 0.0000 14.0530 14.7437 -40.9822 -3.4878 -11.4457 33.7982 -0.4004 6.9593 -11.5523 -0.0218 0.9528 -2.6190 -4.9581 0.0932 1.5591 0.2834 -0.0369 -2.8425 3.0751 0.1315 -3.8112 -2.4645 -1.1085 -6.9056 2.8072 -1.6019 14.0365 1.1754 -0.7191 5.4033 -0.0000 0.0000 0.0000 -85.0539 -8.8806 41.5266 20.2663 -30.9618 -5.6677 -0.0000 0.0000 -14.9672 30.0427 -15.3730 -8.7167 -7.1250 0.0000 -0.0000 1.6071 12.3646 -1.2262 -0.0000 0.0000 0.0000 91.7065 -19.4252 -32.6639 -7.3186 12.4423 -0.7989 0.0000 0.0000 48.3618 -23.2985 -28.1238 11.4747 7.1250 -0.0000 -0.0000 8.4089 -59.9800 -3.0870
7.3545 15.1456 -39.1491 4.4297 1.5259 6.4374 0.0000 0.0000 0.0000 -29.1744 3.9309 2.6601 0.3432 3.7642 10.4142 -0.1910 -16.6640 -9.6961 0.1809 2.7399 7.5554 0.0000 0.0000 0.0000 13.3198 15.0090 -41.5166 -2.9688 -10.6444 31.0898 -0.3643 6.9162 -11.0741 -0.0349 1.2067 -3.3177 -5.3398 -0.0896 1.3354 0.2622 -0.2838 -2.9302 3.2786 0.0196 -3.7543 -2.4487 -0.5872 -7.1656 3.2313 -0.9383 13.4292 1.3473 -0.3652 5.2420 0.0000 -0.0000 0.0000 -84.7091 -9.7885 42.1542 21.0183 -31.8497 -6.0596 -0.0000 0.0000 -15.9219 29.8320 -16.7189 -9.3676 -7.1250 0.0000 -0.0000 1.3126 10.8848 -1.0414 0.0000 -0.0000 0.0000 91.8073 -19.6061 -36.9069 -7.0367 11.9797 -0.7393 0.0000 0.0000 52.2767 -23.9009 -27.9559 11.7362 7.1250 -0.0000 -0.0000 7.6420 -59.9528 -2.7984
7.3609 15.1659 -38.9165 4.4145 2.0668 6.7412 0.0000 0.0000 0.0000 -29.0276 4.1120 5.1857 0.1599 2.5766 7.1020 -0.0822 -15.0315 -9.6186 0.0415 1.3145 3.6147 0.0000 0.0000 0.0000 13.0203 15.0283 -42.1176 -2.5509 -9.9298 28.7496 -0.3296 7.0620 -10.6408 -0.0190 0.8899 -2.4459 -5.4055 -0.3115 1.1369 0.3900 -0.5687 -3.0278 3.4593 -0.1175 -3.7148 -2.5734 -0.6604 -7.1646 3.1816 -1.0134 13.3508 1.3471 -0.4117 5.2202 0.0000 0.0000 0.0000 -84.6552 -10.6113 42.1000 21.5880 -32.5083 -6.3630 -0.0000 0.0000 -16.4081 28.3678 -17.1734 -9.0587 -7.1250 0.0000 -0.0000 0.3003 10.6277 -0.2398 0.0000 0.0000 0.0000 91.7913 -19.9942 -39.9614 -6.8739 11.7115 -0.7058 0.0000 0.0000 55.0447 -24.2879 -28.3146 12.0813 7.1250 -0.0000 -0.0000 7.3901 -60.4155 -2.7871
